<?xml version="1.0" encoding="UTF-8" standalone="no" ?>
<!DOCTYPE svg PUBLIC "-//W3C//DTD SVG 1.1//EN" "http://www.w3.org/Graphics/SVG/1.1/DTD/svg11.dtd">
<svg xmlns="http://www.w3.org/2000/svg" xmlns:xlink="http://www.w3.org/1999/xlink" version="1.1" width="1080" height="1080" viewBox="0 0 1080 1080" xml:space="preserve">
<desc>Created with Fabric.js 5.2.4</desc>
<defs>
</defs>
<g transform="matrix(1 0 0 1 540 540)" id="337d3365-2b8a-412d-8d60-778b46a6c81d"  >
<rect style="stroke: none; stroke-width: 1; stroke-dasharray: none; stroke-linecap: butt; stroke-dashoffset: 0; stroke-linejoin: miter; stroke-miterlimit: 4; fill: rgb(255,255,255); fill-rule: nonzero; opacity: 1; visibility: hidden;" vector-effect="non-scaling-stroke"  x="-540" y="-540" rx="0" ry="0" width="1080" height="1080" />
</g>
<g transform="matrix(1 0 0 1 540 540)" id="98a2e909-ca44-4845-a08a-b8ccb836eaa1"  >
</g>
<g transform="matrix(1 0 0 1 540.5 483.5)"  >
<path style="stroke: rgb(255,255,255); stroke-width: 1; stroke-dasharray: none; stroke-linecap: butt; stroke-dashoffset: 0; stroke-linejoin: miter; stroke-miterlimit: 4; fill: rgb(0,0,0); fill-rule: nonzero; opacity: 1;" vector-effect="non-scaling-stroke"  transform=" translate(-320, -256)" d="M 104 96 L 56 96 C 42.7 96 32 106.7 32 120 L 32 224 L 8 224 C 3.5999999999999996 224 0 227.6 0 232 L 0 280 C 0 284.4 3.6 288 8 288 L 32 288 L 32 392 C 32 405.3 42.7 416 56 416 L 104 416 C 117.3 416 128 405.3 128 392 L 128 120 C 128 106.7 117.3 96 104 96 z M 632 224 L 608 224 L 608 120 C 608 106.7 597.3 96 584 96 L 536 96 C 522.7 96 512 106.7 512 120 L 512 392 C 512 405.3 522.7 416 536 416 L 584 416 C 597.3 416 608 405.3 608 392 L 608 288 L 632 288 C 636.4 288 640 284.4 640 280 L 640 232 C 640 227.6 636.4 224 632 224 z M 456 32 L 408 32 C 394.7 32 384 42.7 384 56 L 384 224 L 256 224 L 256 56 C 256 42.7 245.3 32 232 32 L 184 32 C 170.7 32 160 42.7 160 56 L 160 456 C 160 469.3 170.7 480 184 480 L 232 480 C 245.3 480 256 469.3 256 456 L 256 288 L 384 288 L 384 456 C 384 469.3 394.7 480 408 480 L 456 480 C 469.3 480 480 469.3 480 456 L 480 56 C 480 42.7 469.3 32 456 32 z" stroke-linecap="round" />
</g>
<g transform="matrix(0.26 -0.99 0.99 0.26 693.56 704.6)"  >
<path style="stroke: rgb(255,255,255); stroke-width: 1; stroke-dasharray: none; stroke-linecap: butt; stroke-dashoffset: 0; stroke-linejoin: miter; stroke-miterlimit: 4; fill: rgb(0,0,0); fill-rule: nonzero; opacity: 1;" vector-effect="non-scaling-stroke"  transform=" translate(-256, -256.02)" d="M 131.3 20.35 C 116.70000000000002 20.450000000000003 103.20000000000002 30.35 99.37 45.17 C 97.04 54.300000000000004 98.82000000000001 63.57 103.5 71.01 C 95.83 75.27000000000001 89.81 82.54 87.47 91.67 C 85.15 100.8 86.91 110 91.57 117.5 C 83.62449247061392 121.85747621289899 77.84449437338772 129.31787475944407 75.60999999999999 138.10000000000002 C 73.26999999999998 147.2 75.06999999999998 156.5 79.78999999999999 163.9 C 72.07 168.20000000000002 66.03999999999999 175.4 63.69999999999999 184.6 C 61.36999999999999 193.7 63.15999999999999 203 67.88999999999999 210.4 C 60.16999999999999 214.70000000000002 54.139999999999986 221.9 51.79999999999998 231.1 C 49.45999999999998 240.2 51.259999999999984 249.5 55.97999999999998 256.9 C 48.259999999999984 261.2 42.22999999999998 268.4 39.899999999999984 277.59999999999997 C 37.55999999999999 286.7 39.359999999999985 295.99999999999994 44.079999999999984 303.4 C 36.359999999999985 307.7 30.329999999999984 314.9 27.989999999999984 324.09999999999997 C 25.639999999999983 333.29999999999995 27.479999999999983 342.59999999999997 32.289999999999985 350.09999999999997 C 24.197393062543547 354.456380018389 18.294742918521045 361.99784948986735 16.00999999999998 370.9 C 11.529999999999983 388.4 22.259999999999984 406.5 39.79999999999998 411 L 39.899999999999984 410.8 L 71.60999999999999 419 L 70.13999999999999 424.7 L 331.7 491.7 L 374 326.5 L 351.6 347.7 L 263.8 374.2 L 279.3 331.7 L 127.60000000000002 292.9 L 132.00000000000003 275.5 L 285.5 314.8 L 295.2 288.1 L 310.5 273.70000000000005 L 143.5 230.90000000000003 L 147.9 213.50000000000003 L 325.9 259.1 L 365.5 221.70000000000002 L 159.4 168.90000000000003 L 163.8 151.50000000000003 L 380.7 207 L 380.59999999999997 207.4 L 412.09999999999997 177.6 L 430.4 106.19999999999999 L 168.79999999999995 39.15999999999998 L 163.99999999999994 57.81999999999998 C 166.19999999999993 41.49999999999998 155.89999999999995 25.549999999999976 139.49999999999994 21.37999999999998 C 136.79999999999995 20.679999999999982 133.99999999999994 20.339999999999982 131.29999999999995 20.34999999999998 z M 131.60000000000002 38.34 C 132.8 38.34 134.00000000000003 38.53 135.10000000000002 38.82 C 143.20000000000002 40.91 148.00000000000003 48.95 145.90000000000003 57.09 L 163.10000000000002 61.49 L 152.10000000000002 104.30000000000001 C 154.3 87.95000000000002 143.90000000000003 72.04000000000002 127.60000000000002 67.87 L 127.00000000000003 67.72 C 119.20000000000003 65.38 114.80000000000003 57.57 116.80000000000003 49.65 C 118.50000000000003 43.04 124.10000000000002 38.65 130.50000000000003 38.349999999999994 L 131.60000000000002 38.349999999999994 z M 119.70000000000002 84.85 C 120.60000000000002 84.85 121.60000000000002 84.99 122.60000000000002 85.21 L 123.20000000000002 85.36 C 131.3 87.44 136.10000000000002 95.48 134.00000000000003 103.6 L 151.20000000000002 108 L 140.20000000000002 151 C 142.60000000000002 134.6 132.20000000000002 118.4 115.80000000000001 114.3 C 115.10000000000001 114.1 114.50000000000001 113.89999999999999 113.9 113.8 C 106.9 111.1 103 103.7 104.9 96.17999999999999 C 106.60000000000001 89.21 112.80000000000001 84.72999999999999 119.7 84.88999999999999 z M 179.60000000000002 89.44 L 396.6 145.1 L 392.20000000000005 162.5 L 175.20000000000005 106.9 z M 106.70000000000002 131.3 L 108.00000000000001 131.3 C 108.50000000000001 131.3 108.90000000000002 131.3 109.40000000000002 131.4 C 110.00000000000001 131.6 110.60000000000002 131.70000000000002 111.20000000000002 131.9 L 111.30000000000001 131.70000000000002 C 119.4 133.8 124.20000000000002 141.8 122.10000000000001 150.00000000000003 L 139.3 154.40000000000003 L 128.3 197.40000000000003 C 130.60000000000002 181.10000000000002 120.20000000000002 165.00000000000003 103.9 160.80000000000004 C 95.72 158.70000000000005 90.96000000000001 150.70000000000005 93.05000000000001 142.50000000000003 C 94.74000000000001 135.90000000000003 100.30000000000001 131.60000000000002 106.70000000000002 131.30000000000004 z M 465.4 152 L 455.2 161.6 L 486.8 195.1 L 497 185.5 z M 442.09999999999997 174 L 315.7 293.5 L 347.2 327 L 473.7 207.5 z M 94.86999999999995 177.7 C 96.34999999999995 177.7 97.86999999999995 177.79999999999998 99.39999999999995 178.2 C 107.49999999999994 180.29999999999998 112.29999999999995 188.29999999999998 110.19999999999995 196.5 L 127.39999999999995 200.9 L 116.39999999999995 243.9 C 118.69999999999995 227.5 108.29999999999995 211.5 91.95999999999995 207.3 C 83.81999999999995 205.20000000000002 79.05999999999995 197.20000000000002 81.13999999999996 189 C 82.83999999999996 182.4 88.45999999999995 178 94.86999999999996 177.7 z M 82.95999999999995 224.2 C 84.43999999999996 224.2 85.95999999999995 224.29999999999998 87.48999999999995 224.7 C 95.62999999999995 226.79999999999998 100.39999999999995 234.79999999999998 98.29999999999995 243 L 115.49999999999996 247.4 L 104.49999999999996 290.3 C 106.79999999999995 274 96.39999999999996 258 80.04999999999995 253.8 C 71.90999999999995 251.70000000000002 67.15999999999995 243.70000000000002 69.23999999999995 235.5 C 70.92999999999995 228.9 76.54999999999995 224.5 82.95999999999995 224.2 z M 71.05999999999995 270.7 C 72.53999999999995 270.7 74.05999999999995 270.8 75.58999999999995 271.2 C 83.71999999999994 273.3 88.47999999999995 281.3 86.39999999999995 289.5 L 103.59999999999995 293.8 L 92.65999999999995 336.6 C 94.81999999999995 320.3 84.40999999999995 304.5 68.14999999999995 300.3 C 60.00999999999995 298.2 55.24999999999995 290.2 57.32999999999995 282 C 59.02999999999995 275.4 64.64999999999995 271 71.05999999999995 270.7 z M 306.4 309.9 L 293 346.6 L 330.4 335.3 z M 59.14999999999998 317.2 C 60.629999999999974 317.2 62.14999999999998 317.3 63.67999999999998 317.7 C 71.81999999999998 319.8 76.57999999999998 327.8 74.48999999999998 336 L 91.69999999999999 340.3 L 80.69999999999999 383.3 C 82.79999999999998 367.1 72.39999999999999 351.3 56.16999999999999 347.1 L 56.26999999999999 346.8 C 48.109999999999985 344.7 43.34999999999999 336.7 45.42999999999999 328.5 C 47.11999999999999 321.9 52.739999999999995 317.5 59.14999999999999 317.2 z M 116.09999999999998 337.5 L 333.2 393 L 328.8 410.4 L 111.70000000000002 354.9 z M 47.18 364 C 48.66 364 50.18 364.1 51.7 364.5 C 59.84 366.6 64.60000000000001 374.6 62.52 382.8 L 79.72 387.1 L 76.03 401.5 L 44.11 393.3 L 44.11 393.5 C 36.1 391.3 31.439999999999998 383.4 33.5 375.3 C 35.2 368.7 40.82 364.3 47.230000000000004 364 z" stroke-linecap="round" />
</g>
</svg>